<?xml version="1.0" encoding="UTF-8"?>
<svg id="Layer_1" xmlns="http://www.w3.org/2000/svg" viewBox="0 0 1689.22 1689.22">
  <defs>
    <style>
      .cls-1 {
        fill: none;
        stroke: #7003ff;
        stroke-miterlimit: 10;
        stroke-width: 80px;
      }
    </style>
  </defs>
  <path d="M823.1,66h36.25c.4,4.04.86,7.87,1.13,11.72,2.39,33.57,8.23,66.34,21.95,97.37,12.35,27.93,30.04,51.88,52.95,72.04,48.92,43.04,96.81,87.16,140.93,135.2,33.46,36.42,63.78,75.14,87.25,118.9,21.45,39.99,37.04,82.02,44.69,126.84,5.4,31.64,5.43,63.45,2.81,95.36-2.7,32.92-8.53,65.26-17.24,97.09-.95,3.47-.16,6.08,1.24,8.98,14.68,30.3,24.85,62.02,30.3,95.26,5.28,32.2,5.51,64.55,3.16,96.97-3.04,42.01-11.88,82.82-26.06,122.49-10.85,30.35-24.77,59.25-40.92,87.13-2.45,4.24-5.25,5.94-10.03,5.59-4.97-.36-9.99-.08-15.63-.08.41-1.62.45-2.9,1.02-3.86,22.85-38.7,37.16-80.73,48.29-123.97,9.11-35.38,14.56-71.21,12.32-107.91-1.62-26.57-3.07-53.16-9.64-79.11-10.16-40.13-31.49-73.95-59.78-103.57-24.18-25.31-52.25-46.02-81.56-64.84-41.67-26.77-84.04-52.44-126.05-78.69-18.1-11.31-36.04-22.88-54.05-34.33-1.75-1.11-3.54-2.18-6.01-3.7-.39,2.25-.82,3.89-.92,5.56-.14,2.36-.04,4.74-.04,7.12,0,201.96-.36,403.92.27,605.88.15,47.34-14.7,88.46-43.73,124.83-38.5,48.23-87.95,81.23-145.84,101.86-32.77,11.68-66.55,18.45-101.45,17.13-36.73-1.39-70.54-11.89-99.09-36.05-32.19-27.23-44.62-62.41-40.18-103.73,3.87-36.01,19.74-67.16,42.32-94.67,48.56-59.17,109.71-99.33,184.14-118.63,26.65-6.91,53.76-6.74,80.92-4.84,15.77,1.1,31.35,3.58,46.56,8.23,13.97,4.26,26.75,10.72,39.31,20.79.78-12.64.28-24.07.37-35.47.09-11.34.02-22.67.02-34.01V66ZM1170.98,785.33c.52-.17,1.04-.33,1.55-.5.82-13.14,1.77-26.27,2.42-39.41,1.12-22.66,1.05-45.34-1.57-67.9-4.08-35.02-15.75-67.63-33.34-98.03-32.11-55.5-72.43-104.12-122.42-144.59-47.47-38.42-98.98-70.71-151.77-101.11-1.49-.86-3.22-1.32-5.4-2.2-.11,2.47-.45,4.28-.22,6.01,1.95,14.6,2.82,29.46,6.21,43.72,20.34,85.69,65.25,156.86,129.74,216.14,21.73,19.98,44.05,39.33,65.5,59.61,40.13,37.95,76.92,78.84,106.98,125.42.66,1.02,1.54,1.9,2.32,2.84Z"/>
  <circle class="cls-1" cx="844.61" cy="844.61" r="804.61"/>
  <line class="cls-1" x1="355.61" y1="205.6" x2="1312.33" y2="1499.39"/>
</svg>