<?xml version="1.0" standalone="no"?>
<!DOCTYPE svg PUBLIC "-//W3C//DTD SVG 20010904//EN"
 "http://www.w3.org/TR/2001/REC-SVG-20010904/DTD/svg10.dtd">
<svg version="1.0" xmlns="http://www.w3.org/2000/svg"
 width="1080.000000pt" height="1080.000000pt" viewBox="0 0 1080.000000 1080.000000"
 preserveAspectRatio="xMidYMid meet">
<metadata>
Created by potrace 1.14, written by Peter Selinger 2001-2017
</metadata>
<g transform="translate(0.000000,1080.000000) scale(0.100000,-0.100000)"
fill="#000000" stroke="none">
<path d="M3850 10176 c0 -7 -9 -16 -20 -19 -16 -4 -20 -14 -20 -46 0 -28 -5
-44 -15 -47 -9 -4 -15 -19 -15 -35 0 -17 -6 -32 -15 -35 -12 -5 -15 -26 -15
-100 0 -83 -2 -94 -20 -104 -11 -6 -20 -17 -20 -25 0 -8 9 -15 20 -15 11 0 20
-7 20 -15 0 -8 -9 -15 -20 -15 -17 0 -20 -7 -20 -50 0 -43 3 -50 20 -50 11 0
20 -7 20 -15 0 -8 -9 -15 -20 -15 -11 0 -20 -5 -20 -12 0 -6 -7 -19 -16 -29
-12 -13 -16 -37 -15 -93 1 -69 -1 -76 -19 -76 -11 0 -20 -7 -20 -15 0 -8 9
-15 20 -15 11 0 20 -7 20 -15 0 -8 -9 -15 -20 -15 -13 0 -20 -7 -20 -20 0 -13
7 -20 20 -20 11 0 20 -7 20 -15 0 -8 -9 -15 -20 -15 -17 0 -20 -7 -20 -44 0
-26 -6 -48 -15 -56 -21 -18 -19 -38 6 -45 l21 -7 -21 -15 c-15 -10 -21 -25
-21 -54 0 -26 -5 -42 -15 -45 -8 -4 -15 -15 -15 -25 0 -10 7 -19 15 -19 19 0
19 -9 -2 -32 -15 -17 -15 -19 3 -32 19 -14 18 -15 -5 -40 -14 -14 -30 -26 -38
-26 -7 0 -13 -7 -13 -16 0 -18 34 -15 36 4 3 23 4 24 20 11 14 -11 14 -13 0
-21 -9 -5 -16 -15 -16 -23 0 -8 -9 -19 -20 -25 -17 -9 -20 -21 -20 -90 0 -64
-3 -80 -15 -80 -19 0 -19 -14 0 -30 19 -16 10 -30 -20 -30 -19 0 -24 -6 -27
-32 -3 -29 -7 -33 -35 -36 -30 -3 -33 -6 -33 -38 0 -32 -2 -34 -35 -34 -28 0
-35 -4 -35 -20 0 -34 -20 -64 -60 -89 -22 -14 -37 -28 -34 -32 2 -4 -6 -15
-18 -23 -21 -15 -21 -16 -2 -37 18 -20 18 -22 1 -34 -9 -6 -17 -17 -17 -24 0
-6 -15 -11 -35 -11 -33 0 -35 -2 -35 -35 0 -28 -4 -35 -20 -35 -11 0 -20 -6
-20 -14 0 -8 -6 -16 -14 -19 -9 -4 -16 -23 -18 -49 -3 -40 -5 -43 -35 -46 -30
-3 -33 -6 -33 -38 0 -24 -5 -34 -15 -34 -8 0 -15 -6 -15 -14 0 -8 7 -16 15
-20 28 -10 17 -36 -15 -36 -27 0 -30 -3 -30 -30 0 -23 -4 -30 -20 -30 -13 0
-20 -7 -20 -20 0 -13 7 -20 20 -20 11 0 20 -7 20 -15 0 -10 -11 -15 -35 -15
-33 0 -35 -2 -35 -35 0 -28 -4 -35 -20 -35 -11 0 -20 -7 -20 -15 0 -8 9 -15
20 -15 13 0 20 -7 20 -20 0 -16 -7 -20 -35 -20 l-35 0 0 -59 c0 -49 -4 -65
-24 -85 -13 -15 -28 -26 -35 -26 -7 0 -11 -19 -11 -49 0 -34 -4 -51 -15 -55
-8 -3 -15 -10 -15 -16 0 -5 7 -10 15 -10 8 0 15 -7 15 -15 0 -10 -10 -15 -30
-15 l-30 0 0 -70 c0 -57 -3 -70 -16 -70 -9 0 -18 -9 -21 -19 -3 -12 -11 -17
-19 -14 -11 4 -14 -6 -14 -46 0 -44 -3 -51 -19 -51 -31 0 -34 -18 -6 -36 29
-19 23 -31 -15 -36 -23 -3 -25 -8 -28 -62 -2 -41 -9 -67 -23 -85 -12 -14 -23
-25 -25 -23 -17 10 -24 -5 -24 -49 0 -27 -4 -48 -9 -45 -10 6 -21 -16 -21 -42
0 -8 -7 -23 -15 -32 -8 -9 -15 -39 -16 -73 -2 -48 -5 -57 -21 -57 -10 0 -18
-7 -18 -15 0 -9 -7 -18 -15 -21 -11 -4 -15 -21 -15 -55 0 -42 -3 -49 -19 -49
-14 0 -21 -8 -23 -27 -2 -20 -8 -28 -20 -27 -10 1 -18 -2 -18 -6 0 -5 -13 -5
-29 0 -21 6 -31 5 -35 -3 -3 -8 -5 -8 -5 1 -1 10 -4 10 -16 -2 -11 -10 -23
-12 -43 -7 -28 8 -58 -9 -44 -24 4 -4 -5 0 -20 10 -16 9 -28 13 -28 9 -1 -5
-7 2 -15 16 -8 14 -14 21 -15 16 0 -6 -14 3 -32 20 -17 16 -28 23 -24 17 4 -7
3 -13 -3 -13 -5 0 -11 5 -13 12 -3 7 -14 9 -31 4 -15 -3 -25 -11 -22 -16 3 -6
3 -10 -2 -11 -4 0 -18 -2 -31 -5 -14 -2 -21 0 -17 6 3 5 -1 10 -9 10 -9 0 -16
4 -16 9 0 5 -11 12 -25 15 -15 4 -25 14 -25 24 0 11 -3 13 -8 5 -5 -8 -12 -2
-20 17 -9 20 -19 28 -33 25 -11 -2 -17 0 -14 6 4 5 -1 9 -9 9 -9 0 -15 3 -15
8 4 26 -3 43 -18 41 -45 -4 -51 0 -47 31 4 20 1 30 -8 31 -7 1 -19 2 -27 3 -8
0 -20 17 -27 36 -7 19 -13 31 -13 26 -1 -5 -7 -4 -14 3 -10 8 -17 7 -27 -2
-10 -9 -11 -9 -6 1 4 6 2 12 -3 12 -6 0 -11 14 -11 31 0 28 -3 31 -25 27 -14
-3 -29 0 -34 6 -10 12 -11 16 -11 47 0 17 -5 20 -21 16 -26 -7 -51 15 -43 36
6 16 -28 41 -40 30 -3 -3 -6 -1 -6 6 0 7 -4 9 -10 6 -6 -4 -10 6 -10 23 0 29
-24 51 -35 32 -6 -10 -35 -2 -33 8 0 4 0 20 -1 35 -1 25 -4 28 -30 24 -20 -4
-31 0 -35 10 -4 9 -1 12 7 7 9 -5 9 -4 0 7 -7 7 -13 21 -13 30 0 9 -9 19 -20
22 -11 3 -18 1 -14 -4 3 -5 1 -9 -5 -9 -15 0 -26 22 -22 48 2 19 -2 22 -28 22
-17 0 -31 5 -31 10 0 6 -8 10 -17 11 -11 0 -13 3 -5 6 6 2 12 13 12 24 0 17
-27 26 -62 20 -5 0 -8 15 -8 35 0 34 -2 36 -26 31 -16 -3 -28 0 -31 9 -3 8
-10 11 -17 7 -7 -5 -7 -2 1 8 7 9 8 20 3 29 -5 8 -6 19 -2 25 4 7 1 7 -9 -1
-8 -5 -18 -10 -24 -9 -17 3 -60 24 -50 24 6 1 16 10 23 22 8 12 9 18 3 15 -5
-4 -13 -2 -16 4 -5 8 -12 7 -22 -2 -13 -10 -19 -8 -35 12 -12 15 -15 26 -9 28
19 6 12 32 -10 32 -11 0 -18 -4 -15 -9 3 -5 -1 -12 -10 -15 -21 -8 -26 -8 -20
3 7 11 -22 23 -35 15 -5 -3 -7 -10 -4 -15 4 -5 -3 -9 -14 -9 -19 0 -21 -6 -21
-70 0 -66 1 -70 23 -70 12 0 29 -4 37 -10 12 -8 12 -10 -3 -16 -21 -8 -22 -40
-2 -48 11 -4 15 -21 15 -66 0 -59 1 -60 28 -61 15 -1 32 0 37 1 6 1 0 -9 -12
-22 -28 -30 -29 -44 -3 -51 14 -4 20 -14 20 -35 0 -25 5 -30 32 -36 29 -6 30
-7 15 -24 -22 -24 -21 -29 3 -35 16 -4 20 -14 20 -51 0 -34 4 -46 15 -46 8 0
15 -6 15 -14 0 -7 7 -19 16 -27 11 -9 15 -25 12 -50 -3 -32 0 -40 20 -48 12
-6 25 -18 28 -26 4 -8 10 -13 14 -10 5 3 6 -4 3 -15 -3 -11 -9 -20 -14 -20
-15 0 -10 -27 6 -34 9 -3 15 -18 15 -36 0 -27 3 -30 30 -30 21 0 30 -5 30 -16
0 -8 -5 -12 -10 -9 -21 13 -23 -28 -2 -44 15 -11 22 -30 24 -61 2 -29 7 -44
16 -43 6 2 12 -4 12 -12 0 -8 5 -15 10 -15 6 0 10 -7 10 -15 0 -11 -12 -15
-45 -15 -38 0 -45 -3 -45 -20 0 -13 -5 -18 -15 -14 -8 4 -15 12 -15 20 0 8 -7
14 -15 14 -14 0 -19 -12 -16 -32 0 -5 -4 -8 -11 -8 -6 0 -20 -7 -30 -16 -16
-16 -18 -16 -24 0 -3 9 -12 16 -20 16 -11 0 -14 -18 -14 -76 0 -74 1 -77 37
-115 35 -37 60 -45 75 -24 4 5 9 2 12 -8 4 -9 8 -24 11 -32 3 -10 18 -15 50
-15 35 0 45 -4 45 -16 0 -13 7 -15 33 -12 17 3 40 8 49 13 15 6 18 2 18 -24 0
-29 3 -31 35 -31 l35 0 0 -100 0 -100 29 0 c36 0 51 -19 22 -27 -27 -7 -27
-29 -1 -45 11 -7 20 -16 20 -20 0 -5 -9 -8 -20 -8 -11 0 -20 -7 -20 -15 0 -8
9 -15 20 -15 13 0 20 -7 20 -20 0 -13 -7 -20 -20 -20 -11 0 -20 -7 -20 -15 0
-8 9 -15 20 -15 19 0 20 -7 20 -205 l0 -205 23 0 c32 0 39 -9 20 -28 -14 -15
-14 -17 6 -30 27 -18 27 -42 1 -42 -11 0 -20 -6 -20 -14 0 -7 9 -16 20 -19 11
-3 20 -10 20 -16 0 -6 -9 -11 -20 -11 -13 0 -20 -7 -20 -20 0 -13 7 -20 20
-20 26 0 25 -14 -2 -33 l-23 -15 25 -24 25 -23 -23 -3 c-27 -4 -28 -18 -2 -32
17 -9 20 -21 20 -87 0 -60 4 -79 18 -89 16 -13 16 -15 0 -28 -14 -10 -18 -28
-18 -75 0 -58 1 -61 24 -61 31 0 40 -14 21 -30 -19 -16 -19 -40 0 -40 19 0 19
-19 0 -26 -19 -8 -19 -28 0 -44 19 -16 19 -30 0 -30 -19 0 -19 -26 0 -34 12
-4 15 -31 15 -156 0 -143 1 -150 20 -150 11 0 20 -6 20 -14 0 -8 7 -17 16 -20
14 -5 14 -7 0 -22 -21 -20 -20 -40 0 -48 16 -6 16 -8 0 -24 -20 -23 -21 -42
-1 -42 19 0 19 -14 0 -30 -19 -16 -19 -30 0 -30 12 0 15 -14 15 -70 0 -62 2
-70 19 -70 26 0 51 -10 51 -21 0 -5 -9 -9 -20 -9 -13 0 -20 -7 -20 -20 0 -13
7 -20 20 -20 15 0 20 -7 20 -29 0 -26 4 -30 32 -33 31 -3 33 -5 36 -48 2 -26
9 -48 18 -53 7 -4 14 -14 14 -21 0 -8 7 -16 15 -20 13 -4 15 -34 15 -179 0
-143 3 -177 15 -187 8 -7 15 -9 15 -4 0 5 5 1 11 -9 7 -12 23 -17 54 -17 40 0
45 3 45 22 0 12 7 29 15 38 10 11 17 42 19 81 2 35 5 66 6 69 2 3 4 11 4 17 1
7 4 12 7 10 3 -1 13 4 21 10 22 19 28 6 28 -58 0 -41 4 -58 15 -63 19 -7 19
-26 0 -26 -21 0 -21 -95 0 -104 19 -7 19 -36 0 -36 -20 0 -20 -56 0 -64 8 -3
15 -12 15 -21 0 -25 86 -21 100 5 6 11 17 20 25 20 21 0 19 39 -2 63 -17 18
-17 19 0 32 25 18 22 125 -3 110 -5 -3 -12 0 -16 6 -4 7 -3 9 3 6 5 -4 16 5
23 18 15 29 8 104 -12 116 -12 8 -4 13 15 10 4 0 7 3 7 9 0 20 115 125 139
127 25 2 43 21 35 35 -3 4 7 8 21 8 18 0 29 -6 32 -20 3 -11 9 -20 14 -20 14
0 11 -28 -3 -33 -16 -6 4 -43 21 -39 20 4 11 -20 -9 -25 -26 -7 -25 -18 2 -37
l22 -16 -22 -16 c-30 -21 -31 -87 -2 -107 24 -17 16 -27 -22 -27 l-28 0 0
-197 c0 -168 2 -199 16 -215 16 -16 16 -18 0 -24 -22 -9 -23 -104 -1 -104 19
0 19 -24 0 -40 -10 -8 -15 -31 -15 -71 l0 -59 64 0 c62 0 65 1 100 40 20 22
36 49 36 61 0 12 8 23 20 26 14 4 20 14 20 32 0 18 14 41 42 69 36 37 47 42
85 42 30 0 43 4 43 14 0 14 36 30 55 26 29 -8 105 -9 105 -1 0 11 34 10 41 -2
8 -11 37 3 38 18 1 6 28 11 61 13 53 3 62 6 72 27 6 14 15 25 20 25 5 0 6 -5
3 -10 -10 -15 61 -12 74 3 16 20 120 22 127 2 8 -19 23 -19 46 2 17 15 18 14
24 -15 5 -26 12 -31 38 -34 27 -3 31 -7 34 -35 3 -30 6 -33 38 -33 l34 0 0
-50 c0 -38 4 -50 15 -50 8 0 15 -9 15 -20 0 -11 6 -20 13 -20 7 0 18 -9 25
-20 7 -12 17 -18 22 -15 6 3 10 2 10 -4 0 -14 245 -261 259 -261 6 0 11 -4 11
-10 0 -5 14 -23 30 -40 17 -17 30 -36 30 -42 0 -6 3 -8 7 -5 9 9 63 -43 63
-60 0 -12 13 -17 33 -14 4 0 7 -6 7 -14 0 -8 8 -15 17 -15 9 0 13 -3 10 -7 -8
-8 42 -63 56 -63 6 0 16 8 23 18 11 14 13 15 17 2 3 -8 7 -23 10 -32 3 -9 18
-18 34 -20 23 -2 29 -8 31 -35 3 -30 6 -33 38 -33 19 0 34 -5 34 -10 0 -6 14
-24 30 -40 17 -16 30 -34 30 -40 0 -5 7 -10 15 -10 8 0 19 -9 25 -20 8 -15 21
-20 55 -20 43 0 45 -1 45 -30 0 -27 3 -30 30 -30 19 0 33 -7 40 -20 6 -11 16
-17 22 -14 6 4 8 3 4 -4 -7 -12 42 -62 61 -62 7 0 13 -9 13 -20 0 -17 7 -20
50 -20 l50 0 0 -35 c0 -32 2 -35 30 -35 18 0 33 -6 36 -15 4 -8 10 -13 14 -10
5 3 11 -4 15 -15 5 -16 15 -20 49 -20 38 0 46 -4 67 -34 13 -19 27 -33 30 -30
4 2 15 -6 23 -18 12 -17 18 -20 28 -10 7 7 15 12 20 12 10 0 39 -56 32 -62 -2
-3 7 -3 21 -1 18 4 30 -1 44 -18 l18 -23 12 23 13 23 24 -23 c13 -12 24 -28
24 -36 0 -9 16 -13 55 -13 42 0 55 -3 55 -15 0 -8 7 -15 15 -15 8 0 15 5 15
10 0 6 7 10 15 10 9 0 15 -9 15 -25 0 -24 2 -25 70 -25 63 0 70 -2 70 -20 0
-26 11 -25 35 2 17 20 20 21 23 6 5 -24 34 -32 48 -14 12 17 29 22 19 6 -3 -6
5 -14 19 -20 14 -5 26 -14 26 -20 0 -14 292 -14 307 1 8 8 13 8 17 0 4 -6 32
-11 62 -11 41 0 54 4 54 15 0 8 6 15 14 15 8 0 17 7 20 16 5 14 7 14 22 0 21
-21 31 -20 44 4 9 17 21 20 70 20 55 0 59 2 68 28 6 15 11 20 11 12 1 -13 2
-13 11 0 6 10 10 11 10 3 0 -18 27 -16 34 3 3 8 14 14 23 13 34 -3 42 1 45 23
2 17 9 23 28 22 14 -1 29 5 33 12 4 8 15 14 22 14 8 0 15 4 15 8 0 22 47 62
73 62 23 0 27 4 27 29 0 29 14 41 50 41 13 0 20 9 22 28 2 21 9 28 30 30 22 3
27 9 30 35 3 28 7 32 36 35 26 3 32 8 32 26 0 28 18 46 47 46 19 0 23 5 23 29
0 29 14 41 51 41 14 0 19 7 19 30 0 27 3 30 29 30 26 0 30 4 33 33 3 28 7 32
35 35 28 3 32 7 35 35 3 28 7 32 35 35 28 3 32 7 35 35 3 28 7 32 35 35 26 3
32 8 35 30 2 21 9 28 31 30 22 3 27 8 27 32 0 28 15 40 51 40 13 0 19 7 19 23
0 29 18 47 47 47 13 0 24 6 24 15 1 8 2 21 3 28 0 6 15 16 33 21 24 7 33 17
37 39 3 17 9 27 12 24 12 -12 46 15 56 44 6 18 17 29 29 29 12 0 24 13 33 35
12 27 21 35 40 35 22 0 26 5 26 29 0 29 14 41 51 41 14 0 19 7 19 25 0 14 7
28 15 31 8 4 15 10 15 15 0 12 118 129 130 129 6 0 10 9 10 20 0 11 -5 20 -11
20 -6 0 3 13 21 30 17 16 29 34 25 40 -3 5 1 13 9 16 9 3 16 12 16 18 0 7 11
19 25 26 13 7 22 17 19 22 -3 4 2 8 10 8 9 0 16 9 16 20 0 11 -4 20 -10 20 -5
0 -7 7 -4 15 4 8 15 15 25 15 13 0 19 7 19 23 0 12 16 37 35 56 28 27 35 41
35 73 0 31 4 41 20 45 22 6 25 16 10 43 -9 16 -6 21 15 26 20 5 25 12 25 35 0
17 6 32 15 35 18 7 20 31 3 36 -8 3 -6 12 6 29 9 14 13 28 10 31 -7 8 38 54
49 50 4 -1 6 3 5 9 -5 20 31 18 37 -2 6 -17 17 -19 110 -19 100 0 103 1 109
24 4 19 11 22 31 19 17 -4 27 0 31 11 3 9 10 16 15 16 12 0 50 38 47 48 -2 4
6 11 17 16 27 12 62 59 47 64 -6 2 -8 10 -5 19 5 12 3 14 -8 8 -8 -4 2 8 23
28 20 19 34 38 30 42 -3 3 4 8 16 12 18 4 22 12 22 49 0 30 5 46 15 50 20 8
19 30 -2 39 -17 6 -17 7 0 19 9 7 17 16 17 20 0 4 7 14 15 22 18 19 20 105 3
122 -8 8 -8 12 -1 12 6 0 13 9 16 20 3 13 14 20 29 20 18 0 20 2 8 10 -8 5
-10 10 -5 10 6 0 2 5 -8 11 -17 10 -17 11 2 28 18 16 19 20 5 39 -10 15 -11
22 -3 22 7 0 9 10 7 25 -3 14 -2 28 2 30 5 3 6 13 3 24 -3 11 2 21 11 24 17 7
22 47 6 47 -6 0 -5 10 2 25 8 19 8 29 1 36 -8 8 -8 18 0 37 9 20 9 26 -1 30
-10 3 -10 7 0 20 11 13 11 15 -2 8 -9 -4 -8 -2 2 7 10 8 15 17 11 20 -3 4 1 7
9 7 9 0 19 7 22 16 9 23 7 36 -4 29 -5 -3 -10 3 -10 14 0 12 5 21 10 21 16 0
12 28 -6 38 -15 8 -15 10 0 15 19 7 21 43 4 50 -10 4 -10 7 -1 18 16 16 17 56
1 61 -6 2 0 15 16 31 23 23 27 35 25 75 -1 26 -7 53 -12 60 -6 7 -6 12 0 12
15 0 16 100 1 118 -11 13 -11 14 0 8 9 -5 13 -3 11 5 -5 39 3 89 16 103 18 18
20 46 3 46 -9 0 -8 4 2 10 13 9 13 10 0 11 -9 0 -7 4 7 11 l23 11 -22 18 c-11
11 -16 19 -9 19 7 0 9 5 6 10 -3 6 -2 10 3 10 5 0 9 7 9 15 0 8 -4 15 -9 15
-5 0 -6 5 -2 12 5 8 1 9 -12 5 -18 -7 -18 -6 -1 7 10 8 18 25 17 38 -1 13 -1
26 0 31 4 13 7 27 9 38 0 5 6 7 11 4 17 -10 23 23 7 39 -8 8 -16 14 -18 13 -2
-1 3 5 13 13 10 9 16 30 16 53 0 21 7 46 16 56 20 22 21 41 1 41 -12 0 -11 4
5 20 17 17 18 23 8 40 -11 17 -10 22 0 29 8 4 13 11 13 15 -3 21 1 28 12 23
10 -4 12 3 9 24 -3 17 -9 27 -16 23 -6 -3 -4 0 4 8 9 7 15 24 14 38 -3 40 7
70 23 70 11 0 14 7 10 21 -3 13 2 28 14 40 11 11 18 31 17 47 -1 15 2 34 7 41
6 10 4 12 -5 6 -9 -5 -11 -3 -6 6 3 8 9 22 12 32 4 9 13 17 21 17 15 0 14 31
-2 42 -5 4 -2 10 7 13 9 4 14 13 11 21 -3 7 2 17 11 20 11 4 16 19 16 45 0 21
5 39 11 39 5 0 8 4 5 9 -3 5 1 12 10 15 8 3 12 10 9 16 -3 5 3 10 14 10 17 0
21 7 22 35 2 52 3 55 17 64 8 4 13 14 12 22 -5 32 1 49 16 49 14 0 16 8 11 50
-4 36 -2 54 8 64 8 7 11 16 8 20 -4 3 1 6 10 6 11 0 15 8 14 27 -1 19 3 28 13
28 10 0 16 12 18 32 2 21 10 34 23 38 20 7 26 30 9 40 -6 3 -5 15 2 31 10 20
9 27 -3 35 -10 6 -11 9 -1 9 7 0 11 4 8 9 -3 4 5 13 19 19 17 8 22 16 18 32
-3 12 -12 24 -19 27 -8 3 -14 14 -14 24 0 23 -35 26 -44 4 -3 -8 -10 -15 -16
-15 -6 0 -9 4 -6 9 3 5 -1 11 -9 15 -18 6 -45 -2 -45 -15 0 -5 -4 -9 -10 -9
-5 0 -10 7 -10 15 0 8 -7 15 -15 15 -8 0 -15 -7 -15 -15 0 -9 -8 -19 -17 -22
-10 -4 -30 -20 -44 -36 -24 -26 -28 -27 -36 -12 -7 13 -16 15 -34 10 -23 -8
-23 -8 -3 -24 19 -15 19 -18 5 -31 -8 -8 -17 -14 -18 -12 -2 1 -6 2 -10 1 -5
-1 -18 0 -30 1 -18 1 -22 -5 -25 -32 -3 -30 -6 -33 -32 -30 -18 3 -26 0 -22
-7 4 -6 2 -11 -5 -11 -9 0 -9 -3 0 -14 9 -11 8 -15 -4 -20 -9 -3 -13 -11 -9
-17 4 -8 0 -9 -15 -4 -13 4 -28 1 -36 -5 -17 -14 -20 -34 -4 -24 6 3 3 -6 -7
-20 -9 -15 -20 -23 -23 -17 -5 7 -15 6 -32 -3 -17 -8 -32 -10 -42 -5 -23 13
-51 0 -37 -16 9 -10 6 -19 -9 -34 -12 -12 -21 -17 -21 -11 0 14 -69 -33 -70
-47 0 -7 -7 -13 -15 -13 -8 0 -15 -8 -16 -17 -4 -58 -3 -58 -32 -55 -21 3 -29
-2 -36 -20 -6 -13 -10 -20 -10 -16 -1 5 -9 0 -19 -10 -50 -46 -62 -53 -68 -37
-4 8 -12 15 -20 15 -17 0 -19 -40 -1 -40 6 -1 2 -6 -11 -13 -12 -7 -20 -15
-17 -18 3 -3 -2 -6 -10 -6 -8 0 -15 4 -15 9 0 5 -9 7 -19 3 -25 -8 -51 19 -44
45 3 11 0 20 -6 20 -6 0 -11 7 -11 15 0 8 5 15 10 15 19 0 10 37 -12 48 l-23
11 23 7 c22 6 32 44 11 44 -6 0 -23 12 -39 27 -22 20 -27 33 -24 57 2 16 10
34 19 38 8 5 15 18 15 29 0 11 -4 18 -9 15 -10 -7 -8 9 4 38 6 13 3 23 -9 31
-10 8 -14 19 -9 30 5 14 3 16 -7 10 -10 -6 -11 -2 -6 18 7 29 -2 60 -15 51 -5
-3 -9 0 -9 6 0 6 7 13 15 16 8 4 15 12 15 20 0 18 -50 19 -51 2 0 -7 -5 -3
-12 10 -8 19 -8 25 4 33 12 7 12 9 0 9 -11 0 -11 4 3 19 18 19 12 56 -8 44 -6
-4 -4 2 4 12 9 11 10 16 3 11 -7 -4 -13 -3 -13 3 0 5 -3 17 -7 27 -4 12 -3 15
5 10 8 -5 10 -2 6 8 -4 9 1 18 10 22 24 9 20 32 -11 60 -20 19 -24 27 -15 36
17 17 15 48 -2 48 -8 0 -18 -4 -21 -10 -3 -5 -11 -10 -17 -10 -6 0 -9 2 -6 6
3 3 2 21 -2 40 -7 31 -6 34 8 22 10 -7 14 -9 10 -4 -4 5 -2 18 3 29 9 16 8 22
-6 29 -14 8 -14 11 -2 21 17 14 32 51 17 42 -6 -4 -16 0 -23 7 -17 16 -28 58
-16 58 5 0 3 11 -3 25 -6 14 -18 25 -26 25 -9 0 -13 3 -9 6 3 4 0 13 -8 21
-27 27 -30 65 -7 84 26 20 29 49 6 49 -8 0 -13 3 -11 8 3 4 -1 13 -9 20 -8 7
-14 11 -14 8 0 -3 -12 6 -27 20 -21 19 -24 27 -14 33 10 6 9 10 -3 14 -9 4
-16 11 -16 17 0 6 4 8 10 5 6 -3 7 1 4 10 -4 8 -7 34 -8 58 -1 28 -6 41 -15
39 -7 -1 -15 7 -18 18 -3 11 -9 20 -14 20 -5 0 -9 5 -9 11 0 6 -7 18 -16 27
-11 10 -13 17 -5 20 6 2 11 13 11 24 0 13 -5 18 -14 15 -8 -3 -17 -1 -20 6 -3
9 -5 9 -5 0 -1 -7 -6 -13 -13 -13 -6 0 -8 3 -5 6 3 4 2 14 -2 23 -14 25 -20
81 -10 81 19 0 -63 99 -83 100 -4 0 -15 -8 -24 -17 -17 -17 -18 -17 -11 0 5
13 1 17 -19 17 -14 0 -34 5 -45 10 -16 9 -17 15 -9 31 6 11 8 24 5 29 -3 6 1
10 10 10 9 0 13 5 10 10 -3 6 3 10 14 10 12 0 21 7 21 15 0 17 -54 48 -65 37
-4 -4 -4 3 -1 15 6 18 2 25 -18 34 -14 7 -23 16 -20 20 3 5 -1 9 -9 9 -7 0
-19 11 -25 24 -6 13 -20 27 -32 31 -11 3 -18 11 -15 16 4 5 1 9 -4 9 -6 0 -10
5 -8 12 1 7 -2 12 -8 13 -5 0 -20 6 -31 13 -12 6 -24 9 -26 6 -3 -3 -5 7 -5
22 0 27 -20 47 -37 37 -5 -3 -6 -1 -2 5 4 7 -3 17 -19 24 -18 8 -22 14 -13 20
10 6 10 8 1 8 -7 0 -30 16 -50 36 -21 20 -32 33 -24 29 10 -6 12 -4 7 4 -4 6
-11 9 -15 7 -14 -9 -51 24 -51 45 0 28 -36 25 -44 -5 -3 -13 -13 -26 -21 -30
-11 -4 -14 -2 -9 6 5 7 2 9 -9 5 -16 -6 -57 23 -57 41 0 6 -9 18 -21 26 -12 8
-18 19 -14 25 3 6 0 11 -7 12 -7 0 -4 4 7 9 11 5 14 9 8 9 -7 1 -13 6 -13 12
0 5 4 8 8 5 4 -2 14 -1 20 3 13 8 6 41 -9 41 -5 0 -9 12 -9 26 0 17 -4 23 -12
19 -7 -4 -6 0 3 7 14 11 15 18 5 36 -7 13 -16 19 -21 15 -6 -4 -1 2 9 14 19
23 19 23 -7 49 -15 15 -24 30 -22 35 3 4 1 11 -5 14 -8 5 -8 11 0 20 8 10 8
19 0 35 -6 12 -9 24 -6 28 3 3 6 -1 6 -9 0 -12 2 -12 10 1 6 9 5 19 -3 28 -14
17 -19 44 -6 36 15 -9 10 33 -6 46 -9 8 -15 29 -15 55 0 32 -5 45 -17 50 -17
6 -17 7 0 16 11 7 17 22 17 49 0 44 -9 72 -20 65 -4 -3 -11 6 -14 20 -4 14
-11 25 -16 25 -6 0 -10 5 -10 10 0 6 7 10 15 10 20 0 19 36 -1 44 -16 6 -16 8
0 24 20 23 20 32 1 32 -13 0 -17 6 -14 26 0 3 -7 11 -17 18 -12 9 -14 15 -6
20 7 4 12 23 12 42 0 29 -3 34 -24 34 -14 0 -32 7 -40 16 -9 8 -16 12 -16 7 0
-13 -20 21 -20 35 0 6 7 12 15 12 8 0 15 7 15 15 0 23 -13 18 -45 -20 -17 -19
-36 -35 -42 -35 -7 0 -13 -7 -13 -15 0 -8 -7 -15 -15 -15 -10 0 -15 -10 -15
-30 0 -18 -6 -33 -15 -36 -9 -4 -15 -19 -15 -40 0 -27 -4 -34 -20 -34 -11 0
-20 -7 -20 -15 0 -8 9 -15 20 -15 11 0 20 -7 20 -15 0 -8 -9 -15 -20 -15 -13
0 -20 -7 -20 -20 0 -11 -7 -20 -15 -20 -11 0 -15 -12 -15 -50 0 -43 -3 -50
-20 -50 -11 0 -20 -7 -20 -15 0 -8 9 -15 20 -15 13 0 20 -7 20 -20 0 -11 -7
-20 -15 -20 -9 0 -18 -7 -21 -15 -4 -8 -12 -15 -20 -15 -10 0 -14 -13 -14 -45
0 -31 -5 -47 -15 -51 -8 -4 -15 -15 -15 -25 0 -10 7 -19 15 -19 8 0 15 -3 15
-6 0 -3 -7 -12 -15 -20 -9 -9 -15 -34 -15 -60 0 -24 -3 -43 -7 -43 -20 3 -34
-2 -28 -11 3 -5 -1 -10 -10 -10 -8 0 -18 -7 -21 -15 -4 -8 -15 -15 -26 -15
-10 0 -17 4 -13 9 3 6 -13 9 -37 9 -23 0 -44 5 -46 11 -2 6 -8 9 -13 5 -5 -3
-9 0 -9 6 0 6 -4 9 -9 5 -5 -3 -13 4 -16 15 -7 23 -40 24 -40 1 0 -8 -10 -16
-23 -18 -17 -2 -21 1 -16 9 5 8 0 7 -11 -2 -10 -8 -16 -10 -12 -3 4 7 -1 14
-12 18 -11 3 -22 13 -25 22 -5 13 -9 13 -23 2 -10 -9 -14 -9 -10 -2 5 7 -1 16
-13 23 -11 6 -20 20 -20 31 0 17 -3 18 -20 9 -11 -6 -20 -7 -20 -3 0 4 -5 1
-10 -7 -5 -8 -10 -10 -10 -5 0 18 -43 15 -57 -3 -8 -9 -12 -12 -10 -7 3 6 -6
15 -19 22 -19 9 -24 8 -24 -3 0 -8 -6 -14 -12 -14 -9 0 -8 -4 2 -10 12 -8 10
-10 -8 -10 -13 0 -20 -4 -17 -10 3 -6 -1 -7 -9 -4 -9 3 -13 10 -10 15 3 5 -1
6 -9 3 -9 -3 -21 4 -30 16 -8 11 -24 22 -36 25 -31 6 -43 15 -37 30 6 16 -19
39 -33 31 -5 -3 -7 -14 -4 -24 4 -16 -2 -18 -42 -18 -39 1 -47 4 -52 24 -4 17
-11 22 -27 20 -11 -2 -22 -9 -22 -15 -1 -7 -2 -17 -3 -21 -1 -10 -48 -8 -74 3
-10 4 -16 13 -14 19 3 7 -4 13 -14 13 -17 2 -21 -3 -18 -23 3 -23 -75 -24 -96
-2 -7 8 -6 9 5 3 13 -8 13 -7 1 9 -16 19 -55 18 -57 -1 -3 -23 -4 -24 -21 -14
-13 7 -23 5 -35 -6 -16 -14 -18 -13 -29 11 -14 30 -35 34 -43 9 -4 -13 -18
-19 -45 -20 -32 -2 -41 1 -46 18 -7 22 -52 23 -47 1 2 -12 1 -13 -34 -17 -12
-1 -27 -5 -33 -9 -7 -5 -10 -2 -9 6 2 7 -3 12 -9 10 -7 -1 -13 5 -13 14 0 18
-34 15 -36 -4 -1 -6 -2 -16 -3 -21 0 -4 -21 -16 -46 -25 -25 -10 -42 -22 -39
-27 3 -6 -5 -8 -20 -5 -14 2 -27 -1 -30 -7 -2 -7 -5 -5 -5 4 -2 28 -64 41 -74
17 -4 -10 -6 -10 -6 0 -1 14 -41 17 -41 2 0 -6 -10 -6 -27 1 -30 11 -58 5 -48
-12 4 -5 -1 -17 -11 -25 -11 -9 -13 -12 -5 -8 8 4 12 3 8 -3 -3 -5 -19 -9 -35
-8 -23 1 -29 -2 -28 -18 1 -16 -6 -21 -32 -23 -22 -2 -30 1 -25 9 4 7 -1 6
-10 -2 -14 -11 -17 -11 -18 0 -1 8 -1 18 0 22 1 5 -9 7 -21 5 -13 -2 -22 -9
-20 -17 5 -24 -17 -37 -68 -40 -48 -2 -51 -1 -41 18 16 29 13 43 -6 39 -10 -2
-17 -10 -15 -17 1 -7 -2 -10 -8 -6 -5 3 -10 1 -10 -5 0 -6 -4 -9 -9 -6 -5 3
-11 -1 -15 -9 -3 -8 -12 -15 -20 -15 -8 0 -18 -10 -22 -22 l-7 -23 -8 23 c-10
26 -27 28 -44 6 -10 -15 -13 -15 -27 0 -19 18 -38 21 -38 6 0 -5 -6 -10 -13
-10 -16 0 -58 46 -50 54 4 3 0 6 -8 6 -10 1 -8 5 5 15 11 8 14 15 8 15 -7 0
-12 9 -12 19 0 11 -6 22 -12 24 -10 4 -10 6 0 6 13 1 18 41 5 41 -5 0 -16 14
-25 30 -9 17 -13 30 -8 30 15 0 12 37 -3 52 -12 11 -12 16 0 26 17 17 17 32
-2 32 -8 0 -16 3 -16 8 -4 19 -8 49 -10 75 -2 15 -7 27 -12 27 -4 0 -5 6 0 13
14 22 12 42 -5 55 -12 9 -16 25 -14 58 1 25 -2 43 -7 40 -4 -3 -8 1 -8 9 0 8
4 15 9 15 19 0 6 35 -22 60 -27 24 -29 29 -15 40 21 18 19 37 -6 45 -14 5 -19
13 -16 26 3 10 1 16 -4 13 -6 -3 -7 7 -4 25 4 23 1 33 -10 37 -8 4 -15 18 -15
34 0 21 -6 29 -25 34 -21 5 -24 10 -15 26 15 29 12 37 -15 44 -14 4 -25 13
-25 21 0 8 -4 15 -10 15 -5 0 -10 7 -10 15 0 8 -7 15 -16 15 -8 0 -27 14 -41
30 -27 32 -43 38 -43 16z m-183 -1042 c2 -6 -4 -15 -14 -18 -9 -4 -14 -4 -10
0 4 4 1 14 -5 22 -10 12 -9 14 6 11 11 -2 21 -9 23 -15z m3164 -77 c-10 -9
-11 -8 -5 6 3 10 9 15 12 12 3 -3 0 -11 -7 -18z"/>
<path d="M940 7140 c0 -13 7 -20 20 -20 13 0 20 7 20 20 0 13 -7 20 -20 20
-13 0 -20 -7 -20 -20z"/>
<path d="M1080 7005 c0 -8 7 -15 15 -15 8 0 15 7 15 15 0 8 -7 15 -15 15 -8 0
-15 -7 -15 -15z"/>
<path d="M1210 6870 c0 -13 7 -20 20 -20 13 0 20 7 20 20 0 13 -7 20 -20 20
-13 0 -20 -7 -20 -20z"/>
<path d="M1350 6736 c0 -8 7 -16 15 -20 10 -4 15 1 15 14 0 11 -7 20 -15 20
-8 0 -15 -6 -15 -14z"/>
<path d="M1550 6665 c0 -8 9 -15 20 -15 11 0 20 7 20 15 0 8 -9 15 -20 15 -11
0 -20 -7 -20 -15z"/>
<path d="M1480 6600 c0 -13 7 -20 20 -20 13 0 20 7 20 20 0 13 -7 20 -20 20
-13 0 -20 -7 -20 -20z"/>
<path d="M1620 6600 c0 -11 7 -20 15 -20 8 0 15 9 15 20 0 11 -7 20 -15 20 -8
0 -15 -9 -15 -20z"/>
<path d="M1690 6530 c0 -11 7 -20 15 -20 8 0 15 9 15 20 0 11 -7 20 -15 20 -8
0 -15 -9 -15 -20z"/>
<path d="M1620 6465 c0 -8 7 -15 15 -15 8 0 15 7 15 15 0 8 -7 15 -15 15 -8 0
-15 -7 -15 -15z"/>
<path d="M1750 6465 c0 -8 9 -15 20 -15 11 0 20 7 20 15 0 8 -9 15 -20 15 -11
0 -20 -7 -20 -15z"/>
<path d="M1820 6395 c0 -8 9 -15 20 -15 11 0 20 7 20 15 0 8 -9 15 -20 15 -11
0 -20 -7 -20 -15z"/>
<path d="M1750 6330 c0 -13 7 -20 20 -20 13 0 20 7 20 20 0 13 -7 20 -20 20
-13 0 -20 -7 -20 -20z"/>
<path d="M1890 6330 c0 -11 7 -20 15 -20 8 0 15 9 15 20 0 11 -7 20 -15 20 -8
0 -15 -9 -15 -20z"/>
<path d="M2020 6330 c0 -13 7 -20 20 -20 13 0 20 7 20 20 0 13 -7 20 -20 20
-13 0 -20 -7 -20 -20z"/>
<path d="M1960 6261 c0 -10 7 -21 15 -25 11 -4 15 1 15 19 0 16 -6 25 -15 25
-8 0 -15 -9 -15 -19z"/>
<path d="M2020 6195 c0 -8 9 -15 20 -15 11 0 20 7 20 15 0 8 -9 15 -20 15 -11
0 -20 -7 -20 -15z"/>
<path d="M2160 6195 c0 -10 7 -15 18 -13 21 4 19 22 -2 26 -10 2 -16 -3 -16
-13z"/>
</g>
</svg>
